<svg width="70" height="70" viewBox="0 0 70 70" fill="none" xmlns="http://www.w3.org/2000/svg">
<circle cx="35" cy="35" r="35" fill="#333333" fill-opacity="0.4"/>
<path d="M49.9688 32.7812H36.2188V19.0312C36.2188 18.0825 35.4487 17.3125 34.5 17.3125C33.5513 17.3125 32.7812 18.0825 32.7812 19.0312V32.7812H19.0312C18.0825 32.7812 17.3125 33.5513 17.3125 34.5C17.3125 35.4487 18.0825 36.2188 19.0312 36.2188H32.7812V49.9688C32.7812 50.9192 33.5513 51.6875 34.5 51.6875C35.4487 51.6875 36.2188 50.9192 36.2188 49.9688V36.2188H49.9688C50.9192 36.2188 51.6875 35.4487 51.6875 34.5C51.6875 33.5513 50.9192 32.7812 49.9688 32.7812Z" fill="white"/>
</svg>
