<svg width="13" height="23" viewBox="0 0 13 23" fill="none" xmlns="http://www.w3.org/2000/svg">
<path d="M12.3471 1.40097L11.9826 1.03642C11.9347 0.988478 11.8778 0.950446 11.8152 0.924498C11.7526 0.898549 11.6855 0.885193 11.6178 0.885193C11.55 0.885193 11.4829 0.898549 11.4203 0.924498C11.3577 0.950446 11.3008 0.988478 11.253 1.03642L1.03636 11.253C0.988417 11.3009 0.950385 11.3578 0.924436 11.4204C0.898488 11.483 0.885132 11.5501 0.885132 11.6178C0.885132 11.6856 0.898488 11.7527 0.924436 11.8153C0.950385 11.8779 0.988417 11.9347 1.03636 11.9826L11.253 22.1992C11.3008 22.2472 11.3577 22.2852 11.4203 22.3111C11.4829 22.3371 11.55 22.3504 11.6178 22.3504C11.6855 22.3504 11.7526 22.3371 11.8152 22.3111C11.8778 22.2852 11.9347 22.2472 11.9826 22.1992L12.3471 21.8347C12.4438 21.738 12.4981 21.6068 12.4981 21.4701C12.4981 21.3334 12.4438 21.2023 12.3471 21.1056L2.85961 11.6181L12.3471 2.13058C12.395 2.08269 12.4331 2.02582 12.459 1.96322C12.485 1.90063 12.4983 1.83353 12.4983 1.76577C12.4983 1.69801 12.485 1.63091 12.459 1.56832C12.4331 1.50572 12.395 1.44885 12.3471 1.40097Z" fill="black"/>
</svg>
