<svg width="106" height="106" viewBox="0 0 106 106" fill="none" xmlns="http://www.w3.org/2000/svg">
<path d="M52.6687 72.875C50.0187 72.875 47.3687 71.55 45.3812 69.2313L35.4437 56.975C33.7875 54.9875 33.125 52.3375 33.125 49.3563C33.4562 46.7063 34.45 44.0563 36.4375 42.4C38.425 40.7438 41.075 39.75 43.725 40.0813C46.375 40.4125 48.6937 41.7375 50.35 43.725L53 47.0375L55.65 43.725C57.3062 41.7375 59.625 40.4125 62.275 40.0813C64.925 39.75 67.575 40.7438 69.5625 42.4C73.5375 46.0438 74.2 52.6688 70.8875 56.975L66.25 61.9438C65.2562 63.2688 63.2688 63.6 61.9438 62.275C60.6188 61.2813 60.6188 58.9625 61.6125 57.6375L65.9187 52.3375C67.2437 50.6813 66.9125 48.3625 65.5875 47.0375C64.5937 46.7063 63.6 46.375 62.9375 46.375C61.9437 46.375 60.95 47.0375 60.6187 47.7L53 56.975L45.7125 47.7C45.05 47.0375 44.0562 46.375 43.0625 46.375C42.0688 46.375 41.075 46.7063 40.4125 47.3688C39.75 48.0313 39.0875 49.025 39.0875 50.0188C39.0875 51.0125 39.4188 52.0063 40.0813 52.6688L50.0188 64.925C50.6813 65.9188 51.675 66.25 53 66.25C54.325 66.25 55.3187 65.9188 55.9812 64.925C56.975 63.6 58.9625 63.2688 60.2875 64.5938C61.6125 65.5875 61.6125 67.9063 60.6187 69.2313C58.6312 71.55 55.9813 72.875 53 72.875H52.6687ZM79.5 75.8563C78.8375 75.8563 78.175 75.525 77.5125 75.1938C76.1875 74.2 75.8563 71.8813 76.85 70.5563C80.825 65.5875 82.8125 59.625 82.8125 53.3313C82.8125 46.7063 80.1625 40.0813 75.525 35.1125C74.2 33.7875 74.5312 31.8 75.8562 30.475C77.1812 29.15 79.1687 29.4813 80.4937 30.8063C86.125 37.1 89.4375 45.3813 89.4375 53.6625C89.4375 61.2813 86.7875 68.9 81.8188 74.8625C81.4875 75.525 80.4938 75.8563 79.5 75.8563ZM28.4875 75.8563C27.4938 75.8563 26.8313 75.525 26.1688 74.8625C20.2063 68.9 16.5625 60.95 16.5625 52.6688C16.5625 44.3875 19.875 36.4375 26.1688 30.475C27.4938 29.15 29.4813 29.15 30.8063 30.475C32.1313 31.8 32.1313 33.7875 30.8063 35.1125C26.1688 40.0813 23.1875 46.375 23.1875 52.6688C23.1875 58.9625 25.8375 65.2563 30.8063 70.225C32.1313 71.55 32.1313 73.5375 30.8063 74.8625C30.1438 75.525 29.4813 75.8563 28.4875 75.8563Z" fill="#FF2B5E"/>
<path d="M23.1875 92.75C22.525 92.75 21.5312 92.4188 20.8688 92.0875L15.9 87.1188C7.95 77.5125 3.3125 65.5875 3.3125 53C3.3125 40.4125 7.95 28.1563 16.2313 18.8813C17.8875 17.225 19.2125 15.5688 20.8688 14.2438C22.525 13.25 24.5125 13.25 25.8375 14.575C27.1625 15.9 26.8312 17.8875 25.5062 19.2125C23.85 20.5375 22.525 21.8625 21.2 23.5188C13.9125 31.4688 9.9375 42.0688 9.9375 53C9.9375 63.9313 13.9125 74.2 20.8688 82.4813C22.1938 84.1375 23.5187 85.4625 25.175 86.7875C26.5 88.1125 26.8312 90.1 25.5062 91.425C25.175 92.0875 24.1812 92.75 23.1875 92.75ZM82.8125 92.75C81.8187 92.75 81.1562 92.4188 80.4937 91.7563C79.1687 90.4313 79.1687 88.4438 80.4937 87.1188C83.475 84.1375 86.125 81.4875 87.1187 80.1625C93.0812 72.2125 96.0625 62.9375 96.0625 53C96.0625 42.4 92.4187 32.1313 85.7937 24.1813C84.1375 22.1938 82.4812 20.5375 80.4937 18.8813C79.1687 17.5563 78.8375 15.5688 80.1625 14.2438C81.4875 12.9188 83.475 12.5875 84.8 13.9125C87.1188 15.9 89.1062 17.8875 90.7625 19.875C98.3812 29.15 102.688 40.7438 102.688 53C102.688 64.2625 99.0437 74.8625 92.4187 83.8063C90.7625 86.125 87.1188 89.7688 85.1313 91.7563C84.4688 92.4188 83.8063 92.75 82.8125 92.75Z" fill="#FF2B5E"/>
</svg>
