<svg width="38" height="35" viewBox="0 0 38 35" fill="none" xmlns="http://www.w3.org/2000/svg">
<path d="M37.409 13.7308L21.5508 0.807692C20.1954 -0.269231 17.8912 -0.269231 16.5358 0.807692L0.542159 13.8654C1.78814e-07 14.1346 -0.13554 14.8077 0.13554 15.3462C0.271079 15.8846 0.813238 16.1538 1.3554 16.1538H2.71079V31.5C2.71079 33.5192 4.20173 35 6.23483 35H14.9094C15.7226 35 16.2648 34.4615 16.2648 33.6538V27.4615C16.2648 26.5192 17.7557 25.5769 18.9756 25.5769C20.1954 25.5769 21.8219 26.5192 21.8219 27.4615V33.6538C21.8219 34.4615 22.364 35 23.1773 35H31.9874C34.0205 35 35.3759 33.6538 35.3759 31.5V16.1538H36.7313C37.2734 16.1538 37.8156 15.75 37.9511 15.2115C38.0867 14.6731 37.9511 14.1346 37.409 13.7308Z" fill="url(#paint0_linear_168_40)"/>
<defs>
<linearGradient id="paint0_linear_168_40" x1="19" y1="0" x2="19" y2="35" gradientUnits="userSpaceOnUse">
<stop stop-color="#3383F5"/>
<stop offset="0.494792" stop-color="#3176D9"/>
<stop offset="1" stop-color="#3383F5"/>
</linearGradient>
</defs>
</svg>
