<svg width="33" height="31" viewBox="0 0 33 31" fill="none" xmlns="http://www.w3.org/2000/svg">
<path d="M1.24256 14.3716C0.889102 14.3716 0.535648 14.2529 0.300012 13.8966C-0.171261 13.4215 -0.0534426 12.59 0.41783 12.2337L14.3204 0.712644C15.6164 -0.237548 17.5015 -0.237548 18.6796 0.712644L32.5822 12.1149C33.0534 12.4713 33.1713 13.3027 32.7 13.7778C32.2287 14.2529 31.5218 14.3716 31.0505 13.8966L17.2658 2.7318C16.9124 2.49425 16.2055 2.49425 15.852 2.7318L1.94946 14.1341C1.71383 14.3716 1.47819 14.3716 1.24256 14.3716ZM27.7516 31H20.0935C19.3865 31 18.9153 30.5249 18.9153 29.8123V24.2299C18.9153 23.3985 17.5015 22.5671 16.4411 22.5671C15.3807 22.5671 14.0847 23.2797 14.0847 24.2299V29.8123C14.0847 30.5249 13.6135 31 12.9065 31H5.48401C3.71674 31 2.42074 29.6935 2.42074 28.0307V16.7471C2.42074 16.0345 2.89201 15.5594 3.59892 15.5594C4.30583 15.5594 4.7771 16.0345 4.7771 16.7471V28.0307C4.7771 28.387 5.01274 28.6245 5.48401 28.6245H11.8462V24.2299C11.8462 21.8544 14.3204 20.1916 16.5589 20.1916C18.7975 20.1916 21.3895 21.8544 21.3895 24.2299V28.6245H27.8694C28.2229 28.6245 28.4585 28.6245 28.4585 27.9119V16.7471C28.4585 16.0345 28.9298 15.5594 29.6367 15.5594C30.3436 15.5594 30.8149 16.0345 30.8149 16.7471V28.0307C30.6971 29.8123 29.5189 31 27.7516 31Z" fill="url(#paint0_linear_42_328)"/>
<defs>
<linearGradient id="paint0_linear_42_328" x1="16.5" y1="0" x2="16.5" y2="31" gradientUnits="userSpaceOnUse">
<stop stop-color="#3383F5"/>
<stop offset="0.494792" stop-color="#3176D9"/>
<stop offset="1" stop-color="#3383F5"/>
</linearGradient>
</defs>
</svg>
