<svg width="43" height="14" viewBox="0 0 43 14" fill="none" xmlns="http://www.w3.org/2000/svg">
<path d="M1.99805 11H0.914062V4.66016H1.99805V11ZM0.826172 2.97852C0.826172 2.80273 0.878906 2.6543 0.984375 2.5332C1.09375 2.41211 1.25391 2.35156 1.46484 2.35156C1.67578 2.35156 1.83594 2.41211 1.94531 2.5332C2.05469 2.6543 2.10938 2.80273 2.10938 2.97852C2.10938 3.1543 2.05469 3.30078 1.94531 3.41797C1.83594 3.53516 1.67578 3.59375 1.46484 3.59375C1.25391 3.59375 1.09375 3.53516 0.984375 3.41797C0.878906 3.30078 0.826172 3.1543 0.826172 2.97852ZM5.36133 2.46875L8.15039 9.42969L10.9395 2.46875H12.3984V11H11.2734V7.67773L11.3789 4.0918L8.57812 11H7.7168L4.92188 4.10938L5.0332 7.67773V11H3.9082V2.46875H5.36133ZM31.7812 7.19727C30.8164 6.91992 30.1133 6.58008 29.6719 6.17773C29.2344 5.77148 29.0156 5.27148 29.0156 4.67773C29.0156 4.00586 29.2832 3.45117 29.8184 3.01367C30.3574 2.57227 31.0566 2.35156 31.916 2.35156C32.502 2.35156 33.0234 2.46484 33.4805 2.69141C33.9414 2.91797 34.2969 3.23047 34.5469 3.62891C34.8008 4.02734 34.9277 4.46289 34.9277 4.93555H33.7969C33.7969 4.41992 33.6328 4.01562 33.3047 3.72266C32.9766 3.42578 32.5137 3.27734 31.916 3.27734C31.3613 3.27734 30.9277 3.40039 30.6152 3.64648C30.3066 3.88867 30.1523 4.22656 30.1523 4.66016C30.1523 5.00781 30.2988 5.30273 30.5918 5.54492C30.8887 5.7832 31.3906 6.00195 32.0977 6.20117C32.8086 6.40039 33.3633 6.62109 33.7617 6.86328C34.1641 7.10156 34.4609 7.38086 34.6523 7.70117C34.8477 8.02148 34.9453 8.39844 34.9453 8.83203C34.9453 9.52344 34.6758 10.0781 34.1367 10.4961C33.5977 10.9102 32.877 11.1172 31.9746 11.1172C31.3887 11.1172 30.8418 11.0059 30.334 10.7832C29.8262 10.5566 29.4336 10.248 29.1562 9.85742C28.8828 9.4668 28.7461 9.02344 28.7461 8.52734H29.877C29.877 9.04297 30.0664 9.45117 30.4453 9.75195C30.8281 10.0488 31.3379 10.1973 31.9746 10.1973C32.5684 10.1973 33.0234 10.0762 33.3398 9.83398C33.6562 9.5918 33.8145 9.26172 33.8145 8.84375C33.8145 8.42578 33.668 8.10352 33.375 7.87695C33.082 7.64648 32.5508 7.41992 31.7812 7.19727ZM38.5605 7.0332L37.5176 8.11719V11H36.3926V2.46875H37.5176V6.6875L41.3086 2.46875H42.668L39.3105 6.23633L42.9316 11H41.584L38.5605 7.0332Z" fill="url(#paint0_linear_168_48)"/>
<path d="M17.9741 11.1755L16.4776 9.11815C16.2289 8.77629 16.095 8.36443 16.095 7.9417V5.32833C16.095 4.42989 16.6941 3.64171 17.5598 3.40128L20.7389 2.51831C21.0817 2.42309 21.4437 2.42106 21.7876 2.51241L25.1783 3.4132C26.0547 3.64603 26.6648 4.43935 26.6648 5.34615V7.96386C26.6648 8.37286 26.5394 8.77203 26.3055 9.10756L24.864 11.1755" stroke="url(#paint1_linear_168_48)"/>
<path d="M16.2654 6.00876H26.6648" stroke="url(#paint2_linear_168_48)"/>
<defs>
<linearGradient id="paint0_linear_168_48" x1="21.5" y1="0" x2="21.5" y2="14" gradientUnits="userSpaceOnUse">
<stop stop-color="#3383F5"/>
<stop offset="0.494792" stop-color="#3176D9"/>
<stop offset="1" stop-color="#3383F5"/>
</linearGradient>
<linearGradient id="paint1_linear_168_48" x1="21.3799" y1="2.37289" x2="21.3799" y2="11.1755" gradientUnits="userSpaceOnUse">
<stop stop-color="#3383F5"/>
<stop offset="0.494792" stop-color="#3176D9"/>
<stop offset="1" stop-color="#3383F5"/>
</linearGradient>
<linearGradient id="paint2_linear_168_48" x1="21.4651" y1="6.00876" x2="21.4651" y2="7.00876" gradientUnits="userSpaceOnUse">
<stop stop-color="#3383F5"/>
<stop offset="0.494792" stop-color="#3176D9"/>
<stop offset="1" stop-color="#3383F5"/>
</linearGradient>
</defs>
</svg>
