<svg width="16" height="4" viewBox="0 0 16 4" fill="none" xmlns="http://www.w3.org/2000/svg">
<path d="M1.81248 3.83333C0.941646 3.83333 0.208313 3.1 0.208313 2.22917C0.208313 1.35833 0.941646 0.625 1.81248 0.625C2.68331 0.625 3.41665 1.35833 3.41665 2.22917C3.41665 3.1 2.72915 3.83333 1.81248 3.83333ZM7.99998 3.83333C7.12915 3.83333 6.39581 3.1 6.39581 2.22917C6.39581 1.35833 7.12915 0.625 7.99998 0.625C8.87081 0.625 9.60415 1.35833 9.60415 2.22917C9.60415 3.1 8.91665 3.83333 7.99998 3.83333ZM14.1875 3.83333C13.3166 3.83333 12.5833 3.1 12.5833 2.22917C12.5833 1.35833 13.3166 0.625 14.1875 0.625C15.0583 0.625 15.7916 1.35833 15.7916 2.22917C15.7916 3.1 15.1041 3.83333 14.1875 3.83333Z" fill="#333333"/>
</svg>
