<svg width="38" height="36" viewBox="0 0 38 36" fill="none" xmlns="http://www.w3.org/2000/svg">
<path d="M33.6154 0H4.38462C1.96723 0 0 1.93824 0 4.32V27.36C0 29.7418 1.96723 31.68 4.38462 31.68H14.0103L17.9667 35.5781C18.2517 35.8589 18.6258 36 19 36C19.3742 36 19.7483 35.8589 20.0333 35.5781L23.9897 31.68H33.6154C36.0328 31.68 38 29.7418 38 27.36V4.32C38 1.93824 36.0328 0 33.6154 0ZM10.9615 17.28C9.75285 17.28 8.76923 16.3109 8.76923 15.12C8.76923 13.9291 9.75285 12.96 10.9615 12.96C12.1702 12.96 13.1538 13.9291 13.1538 15.12C13.1538 16.3109 12.1702 17.28 10.9615 17.28ZM19.7308 17.28C18.5221 17.28 17.5385 16.3109 17.5385 15.12C17.5385 13.9291 18.5221 12.96 19.7308 12.96C20.9395 12.96 21.9231 13.9291 21.9231 15.12C21.9231 16.3109 20.9395 17.28 19.7308 17.28ZM28.5 17.28C27.2913 17.28 26.3077 16.3109 26.3077 15.12C26.3077 13.9291 27.2913 12.96 28.5 12.96C29.7087 12.96 30.6923 13.9291 30.6923 15.12C30.6923 16.3109 29.7087 17.28 28.5 17.28Z" fill="url(#paint0_linear_37_66)"/>
<defs>
<linearGradient id="paint0_linear_37_66" x1="19" y1="0" x2="19" y2="36" gradientUnits="userSpaceOnUse">
<stop stop-color="#3383F5"/>
<stop offset="0.494792" stop-color="#3176D9"/>
<stop offset="1" stop-color="#3383F5"/>
</linearGradient>
</defs>
</svg>
