<svg width="36" height="35" viewBox="0 0 36 35" fill="none" xmlns="http://www.w3.org/2000/svg">
<path d="M18 35C17.6455 35 17.2911 34.8628 17.0211 34.5898L12.8672 30.3898C12.3258 29.8424 12.3258 28.9576 12.8672 28.4102C13.4086 27.8628 14.2837 27.8628 14.8251 28.4102L18 31.6204L21.1749 28.4102C21.4338 28.147 21.7855 28 22.1538 28H31.8462C32.6105 28 33.2308 27.3728 33.2308 26.6V4.2C33.2308 3.4286 32.6105 2.8 31.8462 2.8H4.15385C3.39092 2.8 2.76923 3.4286 2.76923 4.2V26.6C2.76923 27.3728 3.39092 28 4.15385 28H8.30769C9.072 28 9.69231 28.6258 9.69231 29.4C9.69231 30.1742 9.072 30.8 8.30769 30.8H4.15385C1.86369 30.8 0 28.9156 0 26.6V4.2C0 1.8844 1.86369 0 4.15385 0H31.8462C34.1363 0 36 1.8844 36 4.2V26.6C36 28.9156 34.1363 30.8 31.8462 30.8H22.7271L18.9789 34.5898C18.7089 34.8628 18.3545 35 18 35Z" fill="url(#paint0_linear_168_44)"/>
<defs>
<linearGradient id="paint0_linear_168_44" x1="18" y1="0" x2="18" y2="35" gradientUnits="userSpaceOnUse">
<stop stop-color="#3383F5"/>
<stop offset="0.494792" stop-color="#3176D9"/>
<stop offset="1" stop-color="#3383F5"/>
</linearGradient>
</defs>
</svg>
