<svg width="19" height="19" viewBox="0 0 19 19" fill="none" xmlns="http://www.w3.org/2000/svg">
<path d="M14.1211 9.87348C14.1306 9.85508 14.146 9.83964 14.1543 9.82064C14.3176 9.48102 14.2642 9.06539 13.975 8.79227L7.42063 2.59292C7.06319 2.25508 6.49972 2.27111 6.16128 2.62795C5.82344 2.98539 5.83888 3.54886 6.19631 3.8873L12.0774 9.45074L6.21947 15.0967C5.8656 15.4381 5.85491 16.0016 6.19631 16.356C6.37088 16.5377 6.60422 16.6286 6.83756 16.6286C7.06022 16.6286 7.28288 16.5455 7.45566 16.3792L13.9507 10.1193C13.9632 10.1068 13.9679 10.0896 13.9804 10.0765C13.9899 10.0676 14 10.0611 14.0095 10.0516C14.0599 9.99877 14.0867 9.93405 14.1211 9.87348Z" fill="#666666"/>
</svg>
